<svg width="221" height="221" viewBox="0 0 221 221" fill="none" xmlns="http://www.w3.org/2000/svg">
<path d="M64.9567 110.72L136.43 39.2465C138.944 36.7326 143.02 36.7326 145.534 39.2465L127.591 21.3041C124.22 17.9329 118.754 17.9329 115.383 21.3041L47.0143 89.6725C43.6432 93.0436 43.6432 98.5099 47.0143 101.881L64.9567 119.823C62.4429 117.31 62.4429 113.234 64.9567 110.72Z" fill="#EDE49D"/>
<path d="M173.985 67.6977L156.042 49.7552C158.556 52.2691 158.556 56.3446 156.042 58.8585L84.5688 130.332C82.0549 132.846 77.9793 132.846 75.4655 130.332L93.4079 148.275C96.779 151.646 102.245 151.646 105.616 148.275L173.985 79.9062C177.356 76.5351 177.356 71.0688 173.985 67.6977Z" fill="#D3BA2A"/>
<path d="M84.5696 130.333L156.043 58.8594C158.557 56.3455 158.557 52.27 156.043 49.7561L145.535 39.2474C143.021 36.7335 138.945 36.7335 136.431 39.2474L64.9576 110.721C62.4437 113.235 62.4437 117.31 64.9576 119.824L75.4663 130.333C77.9793 132.847 82.0558 132.847 84.5696 130.333Z" fill="#EEE045"/>
<path d="M99.5122 153.394C96.5148 153.394 93.6962 152.226 91.5769 150.106L45.1841 103.714C43.0639 101.594 41.8968 98.7758 41.8968 95.7785C41.8968 92.7803 43.0648 89.9625 45.1841 87.8432L113.553 19.4748C117.928 15.0997 125.047 15.0997 129.423 19.4748L175.816 65.8684C177.936 67.9877 179.103 70.8063 179.103 73.8036C179.103 76.8009 177.935 79.6196 175.816 81.7389L107.447 150.107C105.328 152.226 102.51 153.394 99.5122 153.394ZM121.488 21.3688C119.94 21.3688 118.393 21.9576 117.215 23.1359L48.8462 91.5044C47.7049 92.6456 47.0764 94.1633 47.0764 95.7776C47.0764 97.3919 47.7058 98.9087 48.8462 100.051L95.2389 146.444C96.3802 147.585 97.8978 148.213 99.5122 148.213C101.126 148.213 102.644 147.584 103.785 146.444L172.154 78.0752C174.51 75.7193 174.51 71.8854 172.154 69.5287L125.761 23.1359C124.583 21.9584 123.035 21.3688 121.488 21.3688Z" fill="#1C2D6B"/>
<path d="M132.678 176.325H111.305C113.442 176.325 115.175 178.552 115.175 181.3V197.249C115.175 199.997 113.442 202.225 111.305 202.225H132.678C136.386 202.225 139.392 198.36 139.392 193.592V184.959C139.392 180.19 136.386 176.325 132.678 176.325Z" fill="#4B67B0"/>
<path d="M91.0943 197.249V181.299C91.0943 178.552 92.8269 176.324 94.9635 176.324H73.5912C69.8826 176.324 66.8766 180.189 66.8766 184.957V193.59C66.8766 198.358 69.8826 202.223 73.5912 202.223H94.9635C92.8269 202.224 91.0943 199.996 91.0943 197.249Z" fill="#89AADB"/>
<path d="M115.175 197.249V181.299C115.175 178.552 113.442 176.324 111.305 176.324H94.9635C92.8269 176.324 91.0943 178.552 91.0943 181.299V197.249C91.0943 199.996 92.8269 202.224 94.9635 202.224H111.305C113.442 202.224 115.175 199.996 115.175 197.249Z" fill="#6287C5"/>
<path d="M132.678 204.813H73.5913C68.4608 204.813 64.2877 199.779 64.2877 193.591V184.958C64.2877 178.77 68.4608 173.735 73.5913 173.735H132.679C137.809 173.735 141.983 178.77 141.983 184.958V193.591C141.982 199.779 137.808 204.813 132.678 204.813ZM73.5913 178.915C71.3562 178.915 69.4674 181.683 69.4674 184.958V193.591C69.4674 196.866 71.3562 199.634 73.5913 199.634H132.679C134.914 199.634 136.803 196.866 136.803 193.591V184.958C136.803 181.683 134.914 178.915 132.679 178.915H73.5913Z" fill="#1C2D6B"/>
<path d="M93.4053 148.277L77.236 132.103V176.325H95.6964V149.906C94.8711 149.5 94.0933 148.963 93.4053 148.277Z" fill="#EDE49D"/>
<path d="M147.714 122.914L136.863 86.7511C135.292 81.5024 130.466 77.9111 124.984 77.9111C123.465 77.9111 122.027 78.1848 120.701 78.6717C122.431 79.9873 123.814 82.9251 124.365 86.7511L129.583 122.914C130.201 127.222 129.869 131.875 128.669 135.613L120.6 160.786V176.325H129.033V160.786L145.815 135.613C148.31 131.875 149.001 127.222 147.714 122.914Z" fill="#D3BA2A"/>
<path d="M129.583 122.914L124.365 86.7511C123.814 82.9242 122.431 79.9865 120.701 78.6717C116.601 80.1772 113.601 83.7702 112.792 87.9994C112.512 89.4627 112.503 91.0011 112.792 92.555C112.874 92.997 112.972 93.439 113.105 93.8818L123.965 129.926L105.617 148.275C105.493 148.399 105.359 148.509 105.23 148.625H105.236C104.896 148.926 104.534 149.187 104.162 149.425C101.605 151.064 98.3838 151.226 95.6982 149.906V176.325H120.6V160.786L128.669 135.613C129.869 131.875 130.201 127.222 129.583 122.914Z" fill="#EEE045"/>
<path d="M129.033 178.915H77.236C75.8056 178.915 74.6462 177.756 74.6462 176.325V132.103C74.6462 131.056 75.2772 130.11 76.245 129.71C77.2118 129.31 78.3263 129.53 79.0679 130.272L95.2372 146.446C97.4618 148.666 101.037 148.798 103.425 146.766C103.452 146.741 103.479 146.716 103.507 146.69L103.633 146.58C103.686 146.534 103.74 146.49 103.789 146.44L121.039 129.19L110.626 94.6286C109.248 90.0428 110.097 85.2102 112.954 81.3686C115.813 77.5252 120.197 75.3213 124.984 75.3213C131.66 75.3213 137.431 79.6161 139.344 86.0087L150.195 122.17C150.195 122.171 150.195 122.172 150.195 122.173C151.709 127.241 150.897 132.663 147.969 137.05L131.622 161.57V176.325C131.623 177.756 130.463 178.915 129.033 178.915ZM79.8259 173.735H126.443V160.786C126.443 160.275 126.594 159.775 126.878 159.35L143.66 134.176C145.73 131.075 146.303 127.242 145.233 123.658L134.382 87.4953C133.129 83.311 129.352 80.5001 124.983 80.5001C121.85 80.5001 118.98 81.9427 117.109 84.4583C115.239 86.973 114.683 90.1352 115.585 93.1351L126.444 129.178C126.719 130.091 126.47 131.081 125.796 131.756L107.447 150.104C107.316 150.235 107.182 150.355 107.048 150.473C107.016 150.504 106.984 150.533 106.951 150.562C102.519 154.487 95.7646 154.286 91.576 150.109L79.8259 138.355V173.735Z" fill="#1C2D6B"/>
<path d="M100.19 133.007H64.6416C63.0152 133.007 61.697 131.688 61.697 130.062C61.697 135.717 66.281 140.301 71.9363 140.301H92.8951C98.5504 140.301 103.134 135.717 103.134 130.062C103.134 131.688 101.816 133.007 100.19 133.007Z" fill="#D3BA2A"/>
<path d="M64.6416 127.118H100.191C101.817 127.118 103.135 128.436 103.135 130.063C103.135 124.407 98.5513 119.823 92.8959 119.823H71.9363C66.281 119.823 61.697 124.407 61.697 130.063C61.697 128.436 63.0152 127.118 64.6416 127.118Z" fill="#EDE49D"/>
<path d="M64.6416 133.007H100.191C101.817 133.007 103.135 131.688 103.135 130.062C103.135 128.436 101.817 127.117 100.191 127.117H64.6416C63.0152 127.117 61.697 128.436 61.697 130.062C61.697 131.688 63.0152 133.007 64.6416 133.007Z" fill="#EEE045"/>
<path d="M92.8951 142.891H71.9364C64.8626 142.891 59.108 137.136 59.108 130.062C59.108 122.988 64.8635 117.233 71.9364 117.233H92.896C99.9697 117.233 105.725 122.988 105.725 130.062C105.725 137.136 99.9697 142.891 92.8951 142.891ZM71.9364 122.413C67.7184 122.413 64.2877 125.845 64.2877 130.063C64.2877 134.281 67.7192 137.712 71.9364 137.712H92.896C97.114 137.712 100.546 134.281 100.546 130.063C100.546 125.845 97.114 122.413 92.896 122.413H71.9364Z" fill="#1C2D6B"/>
<path d="M100.19 153.485H64.6416C63.0152 153.485 61.697 152.167 61.697 150.541C61.697 156.196 66.281 160.78 71.9363 160.78H92.8951C98.5504 160.78 103.134 156.196 103.134 150.541C103.134 152.167 101.816 153.485 100.19 153.485Z" fill="#D3BA2A"/>
<path d="M64.6416 147.597H100.191C101.817 147.597 103.135 148.915 103.135 150.542C103.135 144.886 98.5513 140.302 92.8959 140.302H71.9363C66.281 140.302 61.697 144.886 61.697 150.542C61.697 148.915 63.0152 147.597 64.6416 147.597Z" fill="#EDE49D"/>
<path d="M64.6416 153.485H100.191C101.817 153.485 103.135 152.167 103.135 150.541C103.135 148.914 101.817 147.596 100.191 147.596H64.6416C63.0152 147.596 61.697 148.914 61.697 150.541C61.697 152.167 63.0152 153.485 64.6416 153.485Z" fill="#EEE045"/>
<path d="M92.8951 163.37H71.9364C64.8626 163.37 59.108 157.614 59.108 150.541C59.108 143.467 64.8635 137.711 71.9364 137.711H92.896C99.9697 137.711 105.725 143.467 105.725 150.541C105.725 157.614 99.9697 163.37 92.8951 163.37ZM71.9364 142.891C67.7184 142.891 64.2877 146.323 64.2877 150.541C64.2877 154.759 67.7192 158.19 71.9364 158.19H92.896C97.114 158.19 100.546 154.759 100.546 150.541C100.546 146.323 97.114 142.891 92.896 142.891H71.9364Z" fill="#1C2D6B"/>
</svg>
