<svg xmlns="http://www.w3.org/2000/svg" xmlns:xlink="http://www.w3.org/1999/xlink" width="1080" zoomAndPan="magnify" viewBox="0 0 810 1439.999935" height="1920" preserveAspectRatio="xMidYMid meet" version="1.0"><defs><clipPath id="72e0cd0780"><path d="M 308.25 115.140625 L 729 115.140625 L 729 535.894531 L 308.25 535.894531 Z M 308.25 115.140625 " clip-rule="nonzero"/></clipPath><clipPath id="f53626de9a"><path d="M 518.625 115.140625 C 402.4375 115.140625 308.25 209.332031 308.25 325.519531 C 308.25 441.703125 402.4375 535.894531 518.625 535.894531 C 634.8125 535.894531 729 441.703125 729 325.519531 C 729 209.332031 634.8125 115.140625 518.625 115.140625 " clip-rule="nonzero"/></clipPath><clipPath id="a2a4cd4b67"><path d="M 293 105.019531 L 392 105.019531 L 392 213 L 293 213 Z M 293 105.019531 " clip-rule="nonzero"/></clipPath><clipPath id="c73cb80341"><path d="M 221.871094 171 L 468 171 L 468 482.269531 L 221.871094 482.269531 Z M 221.871094 171 " clip-rule="nonzero"/></clipPath><clipPath id="fdc10ae658"><path d="M 244 171 L 491 171 L 491 482.269531 L 244 482.269531 Z M 244 171 " clip-rule="nonzero"/></clipPath><clipPath id="5ad5b31a24"><path d="M 318 105.019531 L 416 105.019531 L 416 213 L 318 213 Z M 318 105.019531 " clip-rule="nonzero"/></clipPath><clipPath id="70209c512b"><path d="M 367 310 L 566 310 L 566 482.269531 L 367 482.269531 Z M 367 310 " clip-rule="nonzero"/></clipPath><clipPath id="de1c4b37af"><path d="M 389 310 L 587.871094 310 L 587.871094 482.269531 L 389 482.269531 Z M 389 310 " clip-rule="nonzero"/></clipPath></defs><g clip-path="url(#72e0cd0780)"><g clip-path="url(#f53626de9a)"><path fill="#ffd24c" d="M 308.25 115.140625 L 729 115.140625 L 729 535.894531 L 308.25 535.894531 Z M 308.25 115.140625 " fill-opacity="1" fill-rule="nonzero"/></g></g><g clip-path="url(#a2a4cd4b67)"><path fill="#100f0f" d="M 385.492188 212.398438 C 382.402344 212.398438 379.894531 209.886719 379.894531 206.796875 L 379.894531 154.050781 C 379.894531 133.292969 363.023438 116.410156 342.285156 116.410156 C 321.542969 116.410156 304.652344 133.292969 304.652344 154.050781 L 304.652344 206.796875 C 304.652344 209.886719 302.164062 212.398438 299.074219 212.398438 C 295.984375 212.398438 293.476562 209.886719 293.476562 206.796875 L 293.476562 154.050781 C 293.476562 127.128906 315.363281 105.21875 342.285156 105.21875 C 369.183594 105.21875 391.089844 127.128906 391.089844 154.050781 L 391.089844 206.796875 C 391.089844 209.886719 388.582031 212.398438 385.492188 212.398438 " fill-opacity="1" fill-rule="nonzero"/></g><g clip-path="url(#c73cb80341)"><path fill="#f79326" d="M 467.925781 468.484375 C 467.925781 475.964844 461.816406 482.0625 454.34375 482.0625 L 235.4375 482.0625 C 227.964844 482.0625 221.855469 475.964844 221.855469 468.484375 L 247.3125 185.191406 C 247.3125 177.730469 253.421875 171.617188 260.898438 171.617188 L 428.882812 171.617188 C 436.355469 171.617188 442.46875 177.730469 442.46875 185.191406 L 467.925781 468.484375 " fill-opacity="1" fill-rule="nonzero"/></g><g clip-path="url(#fdc10ae658)"><path fill="#f9af23" d="M 490.144531 468.484375 C 490.144531 475.964844 484.035156 482.0625 476.578125 482.0625 L 257.660156 482.0625 C 250.1875 482.0625 244.074219 475.964844 244.074219 468.484375 L 269.546875 185.191406 C 269.546875 177.730469 275.644531 171.617188 283.117188 171.617188 L 451.121094 171.617188 C 458.578125 171.617188 464.6875 177.730469 464.6875 185.191406 L 490.144531 468.484375 " fill-opacity="1" fill-rule="nonzero"/></g><path fill="#f79326" d="M 336.089844 206.796875 C 336.089844 213.976562 330.277344 219.792969 323.121094 219.792969 C 315.945312 219.792969 310.132812 213.976562 310.132812 206.796875 C 310.132812 199.617188 315.945312 193.816406 323.121094 193.816406 C 330.277344 193.816406 336.089844 199.617188 336.089844 206.796875 " fill-opacity="1" fill-rule="nonzero"/><path fill="#f79326" d="M 424.085938 206.796875 C 424.085938 213.976562 418.273438 219.792969 411.117188 219.792969 C 403.941406 219.792969 398.128906 213.976562 398.128906 206.796875 C 398.128906 199.617188 403.941406 193.816406 411.117188 193.816406 C 418.273438 193.816406 424.085938 199.617188 424.085938 206.796875 " fill-opacity="1" fill-rule="nonzero"/><g clip-path="url(#5ad5b31a24)"><path fill="#141515" d="M 410.320312 212.398438 C 407.230469 212.398438 404.738281 209.886719 404.738281 206.796875 L 404.738281 154.050781 C 404.738281 133.292969 387.867188 116.410156 367.109375 116.410156 C 346.367188 116.410156 329.496094 133.292969 329.496094 154.050781 L 329.496094 206.796875 C 329.496094 209.886719 326.988281 212.398438 323.902344 212.398438 C 320.8125 212.398438 318.304688 209.886719 318.304688 206.796875 L 318.304688 154.050781 C 318.304688 127.128906 340.207031 105.21875 367.109375 105.21875 C 394.027344 105.21875 415.914062 127.128906 415.914062 154.050781 L 415.914062 206.796875 C 415.914062 209.886719 413.40625 212.398438 410.320312 212.398438 " fill-opacity="1" fill-rule="nonzero"/></g><path fill="#100f0f" d="M 505.457031 351.609375 C 502.367188 351.609375 499.859375 349.117188 499.859375 346.023438 L 499.859375 293.277344 C 499.859375 272.523438 482.988281 255.636719 462.246094 255.636719 C 441.503906 255.636719 424.617188 272.523438 424.617188 293.277344 L 424.617188 346.023438 C 424.617188 349.117188 422.109375 351.609375 419.019531 351.609375 C 415.949219 351.609375 413.441406 349.117188 413.441406 346.023438 L 413.441406 293.277344 C 413.441406 266.355469 435.328125 244.4375 462.246094 244.4375 C 489.148438 244.4375 511.050781 266.355469 511.050781 293.277344 L 511.050781 346.023438 C 511.050781 349.117188 508.542969 351.609375 505.457031 351.609375 " fill-opacity="1" fill-rule="nonzero"/><g clip-path="url(#70209c512b)"><path fill="#d22b34" d="M 565.667969 468.484375 C 565.667969 475.964844 559.558594 482.0625 552.085938 482.0625 L 380.695312 482.0625 C 373.222656 482.0625 367.109375 475.964844 367.109375 468.484375 L 367.277344 324.421875 C 367.277344 316.941406 373.386719 310.84375 380.859375 310.84375 L 548.847656 310.84375 C 556.320312 310.84375 562.429688 316.941406 562.429688 324.421875 L 565.667969 468.484375 " fill-opacity="1" fill-rule="nonzero"/></g><g clip-path="url(#de1c4b37af)"><path fill="#ef323d" d="M 587.886719 468.484375 C 587.886719 475.964844 581.777344 482.0625 574.304688 482.0625 L 402.914062 482.0625 C 395.441406 482.0625 389.328125 475.964844 389.328125 468.484375 L 389.496094 324.421875 C 389.496094 316.941406 395.605469 310.84375 403.078125 310.84375 L 571.066406 310.84375 C 578.539062 310.84375 584.652344 316.941406 584.652344 324.421875 L 587.890625 468.484375 " fill-opacity="1" fill-rule="nonzero"/></g><path fill="#d22b34" d="M 456.070312 346.023438 C 456.070312 353.203125 450.238281 359.003906 443.082031 359.003906 C 435.910156 359.003906 430.097656 353.203125 430.097656 346.023438 C 430.097656 338.847656 435.910156 333.03125 443.082031 333.03125 C 450.238281 333.03125 456.070312 338.847656 456.070312 346.023438 " fill-opacity="1" fill-rule="nonzero"/><path fill="#d22b34" d="M 544.046875 346.023438 C 544.046875 353.203125 538.234375 359.003906 531.0625 359.003906 C 523.90625 359.003906 518.09375 353.203125 518.09375 346.023438 C 518.09375 338.847656 523.90625 333.03125 531.0625 333.03125 C 538.234375 333.03125 544.046875 338.847656 544.046875 346.023438 " fill-opacity="1" fill-rule="nonzero"/><path fill="#141515" d="M 530.28125 351.609375 C 527.191406 351.609375 524.6875 349.117188 524.6875 346.023438 L 524.6875 293.277344 C 524.6875 272.523438 507.8125 255.636719 487.074219 255.636719 C 466.332031 255.636719 449.460938 272.523438 449.460938 293.277344 L 449.460938 346.023438 C 449.460938 349.117188 446.953125 351.609375 443.863281 351.609375 C 440.773438 351.609375 438.265625 349.117188 438.265625 346.023438 L 438.265625 293.277344 C 438.265625 266.355469 460.152344 244.4375 487.074219 244.4375 C 513.976562 244.4375 535.878906 266.355469 535.878906 293.277344 L 535.878906 346.023438 C 535.878906 349.117188 533.371094 351.609375 530.28125 351.609375 " fill-opacity="1" fill-rule="nonzero"/></svg>